<svg
   viewBox="0 0 32 32"
   id="svg10338"
   version="1.1"
   inkscape:version="0.91 r13725"
   sodipodi:docname="edit.svg">
  <defs
     id="defs10340" />
  <g
     inkscape:label="Layer 1"
     inkscape:groupmode="layer"
     id="layer1"
     transform="translate(0,-1020.3622)">
    <g
       transform="matrix(1.0848077,0,0,1.085034,-652.86063,598.60098)"
       id="g567"
       >
      <g
         id="g569"
         >
        <path
           class="st0"
           d="m 614.4,415 0,0 c -0.4,0 -0.8,-0.2 -1.1,-0.5 l -7.8,-7.8 c -0.6,-0.6 -0.6,-1.7 0,-2.3 l 12.8,-12.8 c 0.3,-0.3 0.7,-0.5 1.1,-0.5 l 0,0 c 0.4,0 0.8,0.2 1.1,0.5 l 7.8,7.8 c 0.6,0.6 0.6,1.7 0,2.3 l -12.8,12.8 c -0.3,0.4 -0.7,0.5 -1.1,0.5 z m -5.6,-9.4 5.5,5.5 10.5,-10.5 -5.5,-5.5 -10.5,10.5 z"
           id="path571"
           inkscape:connector-curvature="0"
            />
      </g>
      <g
         id="g573"
         >
        <path
           class="st0"
           d="m 627.2,402.2 c -0.4,0 -0.8,-0.2 -1.1,-0.5 l -7.8,-7.8 c -0.6,-0.6 -0.6,-1.7 0,-2.3 l 0.7,-0.7 c 1.3,-1.3 3.1,-2.1 5.1,-2.1 1.9,0 3.7,0.7 5.1,2.1 2.8,2.8 2.8,7.3 0,10.1 l -0.7,0.7 c -0.5,0.4 -0.9,0.5 -1.3,0.5 z m -5.5,-9.4 5.5,5.5 c 1.1,-1.5 1,-3.7 -0.4,-5.1 -0.7,-0.7 -1.7,-1.1 -2.8,-1.1 -0.8,-0.1 -1.7,0.2 -2.3,0.7 z"
           id="path575"
           inkscape:connector-curvature="0"
            />
      </g>
      <g
         id="g577"
         >
        <g
           id="g579"
           >
          <path
             class="st0"
             d="m 603.4,418.2 c -0.4,0 -0.8,-0.2 -1.1,-0.5 -0.4,-0.4 -0.6,-1 -0.4,-1.6 l 3.2,-11 c 0.2,-0.5 0.6,-1 1.1,-1.1 0.6,-0.1 1.1,0 1.5,0.4 l 7.8,7.8 c 0.4,0.4 0.6,1 0.4,1.5 -0.1,0.6 -0.6,1 -1.1,1.1 l -11,3.2 c -0.1,0.2 -0.3,0.2 -0.4,0.2 z m 3.9,-9.5 -1.6,5.5 5.5,-1.6 -3.9,-3.9 z"
             id="path581"
             inkscape:connector-curvature="0"
              />
        </g>
        <g
           id="g583"
           >
          <path
             class="st0"
             d="m 603.4,418.2 c -0.4,0 -0.8,-0.2 -1.1,-0.5 -0.4,-0.4 -0.6,-1 -0.4,-1.6 l 1,-3.4 c 0.1,-0.5 0.5,-0.9 1,-1.1 0.5,-0.2 1,-0.1 1.4,0.1 0.6,0.4 1.1,0.8 1.6,1.3 0.4,0.4 0.9,1 1.3,1.6 0.3,0.4 0.4,1 0.2,1.5 -0.2,0.5 -0.6,0.9 -1.1,1 l -3.5,1 c -0.1,0.1 -0.3,0.1 -0.4,0.1 z"
             id="path585"
             inkscape:connector-curvature="0"
              />
        </g>
        <g
           id="g587"
           >
          <path
             class="st0"
             d="m 603.4,418.2 c -0.4,0 -0.8,-0.2 -1.1,-0.5 -0.4,-0.4 -0.6,-1 -0.4,-1.6 l 1,-3.4 c 0.1,-0.5 0.5,-0.9 1,-1.1 0.5,-0.2 1,-0.1 1.4,0.1 0.6,0.4 1.1,0.8 1.6,1.3 0.4,0.4 0.9,1 1.3,1.6 0.3,0.4 0.4,1 0.2,1.5 -0.2,0.5 -0.6,0.9 -1.1,1 l -3.5,1 c -0.1,0.1 -0.3,0.1 -0.4,0.1 z"
             id="path589"
             inkscape:connector-curvature="0"
              />
        </g>
      </g>
      <g
         id="g591"
         >
        <path
           class="st0"
           d="m 610.4,411.1 c -0.4,0 -0.8,-0.2 -1.1,-0.5 -0.6,-0.6 -0.6,-1.7 0,-2.3 l 12.8,-12.8 c 0.6,-0.6 1.7,-0.6 2.3,0 0.6,0.6 0.6,1.7 0,2.3 l -12.8,12.8 c -0.3,0.4 -0.7,0.5 -1.2,0.5 z"
           id="path593"
           inkscape:connector-curvature="0"
            />
      </g>
    </g>
  </g>
</svg>
