<svg

   viewBox="0 0 32 32"
   id="svg10338"
   version="1.1"
   inkscape:version="0.91 r13725"
   sodipodi:docname="trash.svg">
  <defs
     id="defs10340" />
  <g
     inkscape:label="Layer 1"
     inkscape:groupmode="layer"
     id="layer1"
     transform="translate(0,-1020.3622)">
    <g
       transform="translate(-327.92143,538.68363)"
       id="g191">
      <g
         id="g193">
        <path
           class="st0"
           d="m 348.7,512.9 -8.7,0 c -3.7,0 -6.7,-3 -6.7,-6.7 l 0,-13.3 c 0,-0.9 0.7,-1.6 1.6,-1.6 l 18.9,0 c 0.9,0 1.6,0.7 1.6,1.6 l 0,13.3 c 0,3.7 -3,6.7 -6.7,6.7 z m -12.2,-18.4 0,11.7 c 0,1.9 1.6,3.5 3.5,3.5 l 8.7,0 c 1.9,0 3.5,-1.6 3.5,-3.5 l 0,-11.7 -15.7,0 z"
           id="path195"
           inkscape:connector-curvature="0"
            />
      </g>
      <g
         id="g197">
        <path
           class="st0"
           d="m 355.2,494.5 -21.7,0 c -2.4,0 -4.3,-1.9 -4.3,-4.3 0,-2.4 1.9,-4.3 4.3,-4.3 l 21.7,0 c 2.4,0 4.3,1.9 4.3,4.3 0,2.4 -1.9,4.3 -4.3,4.3 z m -21.7,-5.4 c -0.6,0 -1.1,0.5 -1.1,1.1 0,0.6 0.5,1.1 1.1,1.1 l 21.7,0 c 0.6,0 1.1,-0.5 1.1,-1.1 0,-0.6 -0.5,-1.1 -1.1,-1.1 l -21.7,0 z"
           id="path199"
           inkscape:connector-curvature="0"
            />
      </g>
      <g
         id="g201">
        <g
           id="g203">
          <path
             class="st0"
             d="m 341.3,507.8 c -0.9,0 -1.6,-0.7 -1.6,-1.6 l 0,-8.7 c 0,-0.9 0.7,-1.6 1.6,-1.6 0.9,0 1.6,0.7 1.6,1.6 l 0,8.7 c 0,0.9 -0.7,1.6 -1.6,1.6 z"
             id="path205"
             inkscape:connector-curvature="0"
              />
        </g>
        <g
           id="g207">
          <path
             class="st0"
             d="m 347.4,507.8 c -0.9,0 -1.6,-0.7 -1.6,-1.6 l 0,-8.7 c 0,-0.9 0.7,-1.6 1.6,-1.6 0.9,0 1.6,0.7 1.6,1.6 l 0,8.7 c 0,0.9 -0.7,1.6 -1.6,1.6 z"
             id="path209"
             inkscape:connector-curvature="0"
              />
        </g>
      </g>
      <g
         id="g211">
        <path
           class="st0"
           d="m 348.7,489.1 c -0.9,0 -1.6,-0.7 -1.6,-1.6 0,-1.5 -1.2,-2.7 -2.7,-2.7 -1.5,0 -2.7,1.2 -2.7,2.7 0,0.9 -0.7,1.6 -1.6,1.6 -0.9,0 -1.6,-0.7 -1.6,-1.6 0,-3.3 2.7,-5.9 5.9,-5.9 3.3,0 5.9,2.7 5.9,5.9 0,0.9 -0.8,1.6 -1.6,1.6 z"
           id="path213"
           inkscape:connector-curvature="0"
            />
      </g>
    </g>
  </g>
</svg>
